<?xml version="1.0" encoding="UTF-8" standalone="no"?>
<!DOCTYPE svg PUBLIC "-//W3C//DTD SVG 1.1//EN" "http://www.w3.org/Graphics/SVG/1.1/DTD/svg11.dtd">
<!-- Created with Vectornator (http://vectornator.io/) -->
<svg height="100%" stroke-miterlimit="10" style="fill-rule:nonzero;clip-rule:evenodd;stroke-linecap:round;stroke-linejoin:round;" version="1.1" viewBox="0 0 1024 1024" width="100%" xml:space="preserve" xmlns="http://www.w3.org/2000/svg" xmlns:xlink="http://www.w3.org/1999/xlink">
<defs>
<radialGradient cx="559" cy="510.738" gradientTransform="matrix(1 0 0 1 8.54233 -23.4021)" gradientUnits="userSpaceOnUse" id="RadialGradient" r="320.696">
<stop offset="0" stop-color="#61f77f"/>
<stop offset="0.491803" stop-color="#d8dd1a"/>
<stop offset="1" stop-color="#7edd1a"/>
</radialGradient>
<linearGradient gradientTransform="matrix(1 0 0 1 0 0)" gradientUnits="userSpaceOnUse" id="LinearGradient" x1="494.177" x2="735.186" y1="260.483" y2="858.082">
<stop offset="0" stop-color="#9affff"/>
<stop offset="0.222508" stop-color="#27ff8a"/>
<stop offset="0.496644" stop-color="#32fd49"/>
<stop offset="0.800895" stop-color="#20ff86"/>
</linearGradient>
<linearGradient gradientTransform="matrix(1 0 0 1 8.54233 -23.4021)" gradientUnits="userSpaceOnUse" id="LinearGradient_2" x1="560.858" x2="823.619" y1="294.368" y2="816.995">
<stop offset="0" stop-color="#9affff"/>
<stop offset="0.222508" stop-color="#27ff8a"/>
<stop offset="0.496644" stop-color="#32fd49"/>
<stop offset="0.800895" stop-color="#20ff86"/>
</linearGradient>
<filter color-interpolation-filters="sRGB" filterUnits="userSpaceOnUse" height="405.224" id="Filter" width="367.927" x="569.955" y="154.912">
<feDropShadow dx="25" dy="43.3013" flood-color="#000000" flood-opacity="0.4" in="SourceGraphic" result="Shadow" stdDeviation="25"/>
</filter>
</defs>
<g id="Layer-1">
<path d="M294.73 46.0154L690.827 46.0154C841.269 46.0154 963.226 167.973 963.226 318.415L963.226 714.512C963.226 864.954 841.269 986.911 690.827 986.911L294.73 986.911C144.288 986.911 22.3308 864.954 22.3308 714.512L22.3308 318.415C22.3308 167.973 144.288 46.0154 294.73 46.0154Z" fill="#00403c" fill-rule="nonzero" opacity="1" stroke="#1e2b31" stroke-linecap="butt" stroke-linejoin="round" stroke-width="1"/>
<g opacity="1">
<path d="M222.144 516.43C222.759 517.11 222.759 517.11 223.373 517.789C225.908 516.387 227.421 513.552 230.131 512.353C248.485 504.233 265.914 519.513 276.21 535.457C282.035 544.477 289.595 562.104 281.125 571.472C269.117 558.19 255.2 548.57 241.19 565.356C240.964 565.627 239.513 568.021 239.347 568.754C235.84 584.271 245.952 596.246 259.008 598.653C262.774 599.347 271.815 594.158 273.138 600.012C276.195 613.534 237.007 644.6 231.975 655.733C232.589 656.412 232.589 656.412 233.203 657.092C242.92 651.718 250.719 645.114 261.465 642.142C270.558 639.628 276.847 642.822 285.426 642.822C291 642.822 302.394 628.811 304.472 626.513C306.257 624.539 307.575 620.658 308.773 619.038C310.423 616.807 317.845 614.542 318.061 611.669C319.745 589.323 318.832 570.757 318.967 548.333C319.037 536.779 319.581 525.231 319.581 513.677C319.581 503.982 314.779 504.047 308.158 496.724C307.544 497.403 307.544 497.403 306.93 498.083C303.372 496.115 299.319 499.88 295.256 498.083C288.654 495.162 279.719 480.573 275.596 480.415C245.918 479.283 235.049 487.884 222.144 516.43Z" fill="#0fc48e" fill-rule="nonzero" opacity="1" stroke="none"/>
<path d="M280.507 673.4C278.093 676.69 277.373 678.754 275.098 681.854C277.313 687.89 269.082 712.483 267.996 718.403C266.266 727.833 267.168 732.046 265.088 741.49C264.157 745.721 242.244 763.802 237.968 766.133C220.017 775.915 149.129 826.075 149.129 826.075C149.129 826.075 288.056 772.452 315.44 738.251C319.696 732.935 331.725 679.381 309.534 684.992C307.229 688.133 296.509 718.393 293.519 716.357C290.075 714.011 292.852 705.902 292.519 700.675C292.449 699.592 289.484 698.33 289.015 697.265C286.604 691.789 291.458 678.093 288.515 674.082C284.953 678.936 286.916 683.695 281.008 687.719C279.281 685.367 280.427 678.283 282.009 676.128C281.297 674.189 281.772 675.123 280.507 673.4Z" fill="#25aa86" fill-rule="nonzero" opacity="1" stroke="none"/>
<path d="M318.655 604.127C311.063 612.524 298.219 637.756 287.269 640.783C276.434 643.779 265.85 637.892 254.707 642.822C251.004 644.46 233.524 655.57 232.589 655.053C227.231 660.979 220.759 678.377 221.38 686.878C231.388 681.343 244.96 682.022 255.936 681.555C263.479 681.234 269.759 685.972 272.524 689.029C273.807 688.32 274.986 687.375 276.081 686.245C283.384 678.713 286.956 662.99 292.799 654.374C298.943 645.313 310.488 644.525 318.165 636.035C318.687 635.457 318.64 630.793 318.739 629.984C319.381 624.779 322.014 607.842 318.655 604.127Z" fill="#097569" fill-rule="nonzero" opacity="1" stroke="none"/>
<path d="M221.481 683.752C219.108 694.098 219.346 700.256 219.715 707.579C220.517 723.515 227.524 739.196 238.283 751.818C245.463 760.241 246.84 764.234 255.366 756.98C256.827 755.736 260.602 754.097 261.308 752.556C263.04 748.774 266.465 744.878 267.369 740.99C269.487 731.882 268.939 717.296 271.707 709.054C273.395 704.025 278.073 682.946 277.228 682.067C270.072 674.63 222.367 679.925 221.481 683.752Z" fill="#04858b" fill-rule="nonzero" opacity="1" stroke="none"/>
<path d="M313.073 628.552C307.339 634.894 301.513 641.136 295.871 647.578C288.181 656.357 272.757 686.569 282.354 697.184C286.843 692.219 286.36 681.364 290.341 674.759C293.575 678.336 290.452 684.582 295.486 688.758C296.714 687.399 299.557 686.991 300.786 685.632C302.626 686.65 312.811 687.382 314.215 688.935C322.273 680.023 321.784 654.759 322.329 643.006C322.603 637.107 317.517 631.828 313.073 628.552Z" fill="#b7b225" fill-rule="nonzero" opacity="1" stroke="none"/>
<path d="M292.799 663.887C286.293 671.083 286.643 691.081 281.125 697.184C282.342 698.978 285.158 699.718 285.426 701.94C286.213 708.467 282.445 716.991 286.655 721.647C303.127 733.777 318.407 720.903 316.204 687.078C315.901 682.424 297.208 684.806 292.799 681.555C293.972 678.96 295.093 665.579 292.799 663.887Z" fill="#e1c926" fill-rule="nonzero" opacity="1" stroke="none"/>
<path d="M184.053 544.291C175.694 543.878 171.2 563.069 182.824 564.676C196.4 566.553 199.095 545.033 184.053 544.291Z" fill="#14d9b6" fill-rule="nonzero" opacity="1" stroke="none"/>
<path d="M276.825 482.454C281.019 487.093 288.264 497.509 295.256 499.442C298.623 500.373 304.27 497.971 306.93 499.442C307.851 498.423 307.851 498.423 308.773 497.403C304.702 492.901 282.076 476.645 276.825 482.454Z" fill="#0d946c" fill-rule="nonzero" opacity="1" stroke="none"/>
<path d="M294.027 446.439C284.03 447.76 285.666 465.466 297.099 465.466C306.79 465.466 308.054 444.585 294.027 446.439Z" fill="#41e28b" fill-rule="nonzero" opacity="1" stroke="none"/>
<path d="M219.073 592.537C209.882 594.938 213.026 610.871 222.759 609.525C234.713 607.872 228.25 590.139 219.073 592.537Z" fill="#0fc48e" fill-rule="nonzero" opacity="1" stroke="none"/>
</g>
<path d="M274.136 234.473C274.136 234.473 361.136 254.905 361.136 330.379C361.136 405.853 357.167 644.016 357.167 709.192C357.167 772.253 307.746 785.25 304.511 786.035C317.049 785.846 373.895 785.4 610.199 784.285C746.637 779.348 808.917 648.426 808.917 517.317C808.917 386.207 755.207 241.139 560.042 236.129C310.611 238.014 274.136 234.473 274.136 234.473ZM490.792 292.129C504.97 292.047 527.441 292.012 560.605 292.129C617.694 292.331 721.815 336.142 720.167 517.91C718.708 678.908 650.627 724.684 572.042 726.785C507.467 728.512 474.136 728.067 474.136 728.067L470.73 292.317C470.73 292.317 476.615 292.212 490.792 292.129Z" fill="#ffffff" fill-rule="nonzero" opacity="1" stroke="none"/>
<path d="M575.344 389.682C574.002 389.687 572.608 389.848 571.187 390.182C548.661 395.475 554.502 431.668 580.219 427.995C605.878 424.329 595.473 389.61 575.344 389.682ZM509.605 371.629C509.272 371.962 508.621 372.158 508.605 372.629C508.283 381.79 508.748 390.964 508.605 400.129C508.495 407.167 506.113 429.637 509.105 432.629C513.769 427.965 521.053 425.698 525.605 419.629C531.954 411.163 532.962 402.378 530.511 394.473C527.531 384.862 519.439 376.546 509.605 371.629ZM561.292 454.567C559.75 454.596 558.144 454.774 556.48 455.16C530.73 461.131 537.588 510.083 566.042 500.598C593.085 491.584 584.426 454.126 561.292 454.567ZM687.042 487.598C683.047 491.593 679.997 496.143 676.042 500.098C674.175 501.965 671.348 502.176 669.042 503.098C659.055 507.093 646.6 513.78 644.542 525.098C643.906 528.596 642.854 532.222 644.542 535.598C641.616 538.525 632.264 536.265 627.542 539.098C626.158 539.928 613.039 547.06 612.542 541.098C611.259 525.702 613.221 527.159 603.542 516.098C595.889 522.221 589.275 532.249 584.042 540.098C582.156 542.927 577.885 545.227 577.042 548.598C576.24 551.807 581.133 553.831 583.542 556.098C591.132 563.241 598.929 559.384 605.542 553.598C607.922 555.977 605.422 562.56 605.042 565.598C603.801 575.532 599.961 584.598 588.542 584.598C586.392 584.598 584.111 583.098 582.042 583.098C578.137 583.098 574.324 589.598 569.042 589.598C562.021 589.598 572.396 567.451 567.542 562.598C555.055 575.085 543.359 591.372 533.542 606.098C535.797 609.104 553.875 631.599 556.447 633.314C564.746 638.846 605.925 629.598 611.542 629.598C633.674 629.598 655.874 606.555 666.292 589.192C670.621 581.976 674.599 574.956 677.542 567.598C678.807 564.436 679.497 559.643 682.042 557.098C681.792 556.598 681.792 556.598 681.542 556.098C687.397 550.243 686.78 530.96 687.542 524.098C687.62 523.395 689.012 523.304 689.042 522.598C689.52 511.608 689.204 500.597 689.042 489.598C689.027 488.563 687.637 487.995 687.042 487.598ZM510.542 514.098C498.921 523.395 519.719 532.962 509.042 535.098C506.158 535.675 497.404 537.956 494.542 537.098C491.141 536.077 487.11 523.564 483.042 525.598C481.782 526.228 482.06 526.555 482.042 527.598C481.881 537.265 481.859 546.935 481.542 556.598C481.123 569.399 480.91 585.006 482.042 598.598C482.081 599.068 482.709 599.265 483.042 599.598C486.161 596.479 489.461 588.911 492.542 584.598C502.354 570.861 512.693 557.404 523.042 544.098C527.922 537.824 532.076 529.564 537.542 524.098C536.935 522.884 536.215 521.268 535.042 520.598C533.396 519.657 511.36 513.444 510.542 514.098Z" fill="url(#RadialGradient)" fill-rule="nonzero" opacity="1" stroke="none"/>
<g opacity="1">
<path d="M663.447 593.948C650.059 607.336 629.375 626.788 605.542 628.598C557.072 632.279 550.926 615.521 540.542 608.598C538.66 607.343 535.861 607.917 534.042 606.098C521.951 618.189 507.944 634.988 497.995 648.916C493.071 655.81 482.042 669.098 482.042 669.098C482.042 669.098 481.595 692.151 483.042 693.598C484.042 692.598 484.042 692.598 485.042 691.598C488.741 693.447 490.364 696.714 493.542 699.098C496.139 701.046 500.444 698.5 503.042 701.098C500.638 703.502 486.463 702.518 485.042 701.098C484.542 701.598 484.542 701.598 484.042 702.098C483.542 701.598 483.542 701.598 483.042 701.098C480.087 704.054 482.042 709.418 482.042 713.598C482.042 720.411 619.107 697.246 645.542 676.098C645.042 675.348 645.042 675.348 644.542 674.598C643.792 675.098 643.792 675.098 643.042 675.598C641.292 673.848 641.292 673.848 639.542 672.098C641.226 670.415 643.751 670.889 645.542 669.098C642.037 663.84 622.105 673.661 617.042 668.598C623.711 661.929 632.67 662.919 640.042 652.598C643.793 647.347 640.691 640.476 643.042 634.598C647.062 624.548 655.265 617.009 659.542 607.598C661.369 603.58 664.447 594.698 663.447 593.948Z" fill="#0fc48e" fill-rule="nonzero" opacity="1" stroke="none"/>
<path d="M681.309 556.644C680.234 558.905 671.927 582.019 661.858 595.49C662.608 596.24 660.687 603.167 658.542 606.598C653.088 615.325 640.338 616.61 636.322 626.649C634.228 631.884 636.78 641.919 633.831 645.851C629.091 652.171 630.171 659.876 624.542 664.098C623.404 664.952 614.14 666.792 615.542 669.598C617.23 672.974 633.479 669.274 637.042 669.598C640.103 669.876 641.075 674.237 643.042 676.598C639.064 682.566 667.509 670.995 680.542 624.098C686.249 603.565 688.606 581.258 688.136 560.097C688.115 559.171 681.665 555.895 681.309 556.644Z" fill="#0d946c" fill-rule="nonzero" opacity="1" stroke="none"/>
<path d="M490.042 617.598C486.904 614.46 486.601 624.039 484.542 626.098C484.042 625.848 484.042 625.848 483.542 625.598C483.042 626.098 482.067 626.391 482.042 627.098C481.56 640.756 481.56 657.029 482.042 670.688C510.849 636.286 513.991 632.511 513.991 632.511C513.991 632.511 509.733 624.251 507.042 622.098C509.644 619.496 516.518 616.171 517.542 613.098C520.59 613.098 523.089 608.713 524.542 607.098C526.632 609.188 527.791 609.91 530.042 611.598C535.831 605.81 540.997 598.415 545.542 591.598C543.227 589.283 543.974 589.03 541.042 586.098C538.073 588.473 539.134 587.21 537.542 589.598C537.173 589.229 537.248 588.497 537.64 587.52C538.194 586.143 539.38 584.276 540.847 582.247C544.487 577.208 549.853 571.163 551.542 569.098C567.987 548.999 585.784 527.485 600.042 506.098C598.193 504.249 576.071 498.859 574.042 500.598C560.257 512.414 554.382 532.49 543.042 546.098C524.371 568.504 509.991 595.433 490.042 617.598Z" fill="#e51c48" fill-rule="nonzero" opacity="1" stroke="none"/>
<path d="M570.715 479.819C558.987 491.546 550.764 507.877 539.042 519.598C537.823 520.817 536.264 520.377 535.042 521.598C538.536 525.091 525.236 539.492 522.042 543.598C511.693 556.904 501.354 570.361 491.542 584.098C488.841 587.88 481.776 595.398 481.542 599.598C481.071 608.085 481.382 616.599 481.542 625.098C481.554 625.7 482.664 626.871 483.042 627.098C485.079 628.32 488.174 623.439 488.542 621.598C490.088 613.867 491.1 607.026 497.042 599.598C517.282 574.298 535.563 548.397 552.542 520.098C555.603 514.996 566.515 499.334 573.042 502.598C579.389 496.252 596.43 509.244 600.102 505.572C591.27 496.74 578.14 490.957 570.715 479.819Z" fill="#e86c90" fill-rule="nonzero" opacity="1" stroke="none"/>
<path d="M609.042 429.098C607.617 430.523 608.435 429.836 606.542 431.098C608.37 432.926 619.542 445.576 619.542 445.598C619.542 448.227 614.205 452.02 612.542 454.098C606.138 462.104 599.844 469.796 592.542 477.098C591.788 477.852 590.876 478.431 590.042 479.098C594.109 483.165 600.048 489.099 606.042 490.598C609.631 491.495 616.596 493.652 619.042 496.098C630.418 484.722 640.389 470.469 650.042 457.598C647.694 454.076 638.48 452.067 634.542 450.098C625.521 445.587 615.445 436.781 609.042 429.098Z" fill="#4e3383" fill-rule="nonzero" opacity="1" stroke="none"/>
<path d="M636.542 391.598C627.367 400.774 619.825 412.222 612.042 422.598C614.165 424.957 636.021 447.359 639.542 445.598C641.788 444.475 658.572 419.547 660.542 416.098C661.476 414.464 654.723 410.155 654.042 409.598C648.335 404.928 644.415 401.471 638.542 395.598C637.135 394.19 637.398 394.386 638.042 393.098C637.292 392.348 637.292 392.348 636.542 391.598Z" fill="#fbdca7" fill-rule="nonzero" opacity="1" stroke="none"/>
<path d="M636.042 392.098C636.542 392.598 636.542 392.598 637.042 393.098C636.792 393.598 636.792 393.598 636.542 394.098C644.025 401.581 651.357 408.777 659.542 415.598C656.946 418.843 654.548 422.258 652.042 425.598C655.033 429.187 654.474 427.53 657.042 430.098C655.507 432.016 643.148 446.678 643.542 447.598C644.263 449.278 646.88 452.048 648.042 453.598C646.617 455.023 647.435 454.336 645.542 455.598C646.796 456.852 648.392 456.773 650.042 457.598C661.954 445.686 672.363 431.651 683.042 418.598C684.661 416.619 692.365 410.566 691.542 408.098C688.445 398.805 678.847 413.39 677.042 416.098C670.477 410.845 663.374 407.057 657.042 401.098C652.836 397.139 648.546 393.261 644.542 389.098C640.066 384.443 639.482 386.938 636.042 392.098Z" fill="#e7b989" fill-rule="nonzero" opacity="1" stroke="none"/>
<path d="M672.542 343.598C671.292 344.848 671.292 344.848 670.042 346.098C674.869 351.296 679.605 356.067 685.042 360.598C677.144 368.496 672.83 380.192 664.542 387.098C661.932 389.273 657.115 376.025 652.542 380.598C655.868 385.032 659.654 388.685 664.042 392.098C665.829 393.487 681.897 404.42 683.542 403.598C685.541 402.599 683.819 402.026 684.542 400.098C686.012 396.179 700.772 374.329 703.542 372.598C706.159 370.962 708.933 375.207 711.542 372.598C707.388 368.444 700.122 366.484 695.042 363.098C686.7 357.537 679.657 350.712 672.542 343.598Z" fill="#4e3383" fill-rule="nonzero" opacity="1" stroke="none"/>
<path d="M571.042 501.098C561.095 503.629 552.352 518.081 546.042 528.598C533.355 549.744 519.878 569.024 505.042 588.098C501.394 592.789 483.019 611.574 490.042 618.598C500.335 609.776 509.022 596.879 516.542 585.598C529.696 565.867 543.528 547.738 556.486 528.3C559.328 524.037 577.184 502.333 571.042 501.098Z" fill="#fc3d69" fill-rule="nonzero" opacity="1" stroke="none"/>
<path d="M675.542 351.098C667.833 358.807 661.315 369.568 654.542 378.598C650.8 375.323 650.991 373.649 648.042 376.598C650.292 378.848 650.292 378.848 652.542 381.098C657.94 378.399 660.413 390.412 665.042 388.098C666.669 387.284 685.74 362.111 686.042 360.598C686.513 358.245 676.495 351.733 675.542 351.098Z" fill="#4b6eb8" fill-rule="nonzero" opacity="1" stroke="none"/>
<path d="M612.542 422.598C610.591 424.549 609.742 426.899 608.042 428.598C612.312 433.722 612.411 433.967 619.042 440.598C622.772 444.327 646.609 460.464 650.042 453.598C647.953 451.509 649.108 452.522 646.542 450.598C646.792 450.098 646.792 450.098 647.042 449.598C645.617 448.173 646.435 448.859 644.542 447.598C647.604 441.475 653.738 435.978 658.042 430.598C655.083 427.047 655.411 428.467 652.542 425.598C647.057 431.083 643.184 438.409 638.542 444.598C628.881 439.767 619.694 430.465 612.542 422.598Z" fill="#d2ab77" fill-rule="nonzero" opacity="1" stroke="none"/>
<path d="M704.542 390.598C705.042 390.848 705.042 390.848 705.542 391.098C709.596 387.044 713.341 380.032 717.042 375.098C714.725 372.781 706.588 370.214 703.542 371.598C700.653 372.911 684.927 395.943 683.542 400.098C682.762 402.438 684.4 404.661 686.042 406.098C690.612 410.097 694.692 404.036 697.042 401.098C699.683 397.797 701.854 393.286 704.542 390.598Z" fill="#6c29b6" fill-rule="nonzero" opacity="1" stroke="none"/>
<path d="M613.042 438.098C602.351 448.789 595.985 464.266 583.542 473.598C585.627 475.683 587.861 477.614 590.042 479.598C594.572 476.201 598.539 472.101 602.542 468.098C604.514 466.127 620.542 447.615 620.542 445.598C620.542 442.509 615.484 439.929 613.042 438.098Z" fill="#4b6eb8" fill-rule="nonzero" opacity="1" stroke="none"/>
<path d="M648.542 376.098C644.222 380.418 639.123 384.339 643.542 389.098C647.712 393.589 652.147 397.828 656.542 402.098C658.241 403.748 659.674 406.598 662.042 406.598C666.762 406.598 669.341 400.566 672.542 397.098C665.05 389.606 655.907 384.029 648.542 376.098Z" fill="#fbdca7" fill-rule="nonzero" opacity="1" stroke="none"/>
<path d="M602.042 515.098C596.776 520.364 591.683 526.387 587.542 532.598C585.411 530.467 583.532 529.681 581.802 527.951C568.805 540.947 538.325 581.416 536.49 586.305C535.805 588.13 535.039 591.778 538.152 591.113C541.066 590.386 564.931 555.237 579.042 537.598C579.542 538.098 579.542 538.098 580.042 538.598C579.073 540.537 579.706 546.446 579.706 546.446C579.706 546.446 596.791 525.6 603.542 516.598C602.792 515.848 602.792 515.848 602.042 515.098Z" fill="#fc3d69" fill-rule="nonzero" opacity="1" stroke="none"/>
<path d="M549.286 575.419C547.842 577.305 553.16 580.715 553.542 581.098C562.508 572.132 569.028 561.117 576.542 551.098C579.747 546.825 584.523 540.739 581.042 538.098C580.603 537.658 579.93 535.316 576.852 538.615C572.925 542.824 565.121 554.729 549.286 575.419Z" fill="#e51c48" fill-rule="nonzero" opacity="1" stroke="none"/>
<path d="M607.042 430.598C604.93 432.71 597.042 441.727 597.042 444.598C597.042 445.776 597.866 446.965 597.542 448.098C595.853 454.009 587.92 458.842 585.042 464.598C587.415 466.97 586.744 465.703 587.542 468.098C588.915 468.098 588.244 467.949 589.542 468.598C595.524 462.616 599.553 455.196 604.542 449.098C607.503 445.48 611.407 442.869 613.542 438.598C611.118 436.173 609.1 433.341 607.042 430.598Z" fill="#4f89d1" fill-rule="nonzero" opacity="1" stroke="none"/>
<path d="M596.042 487.598C604.376 495.932 605.709 490.398 595.542 502.598C599.561 507.286 603.703 505.758 608.042 510.098C612.052 506.088 617.004 500.674 619.542 495.598C617.093 493.149 598.354 485.286 596.042 487.598Z" fill="#c9877e" fill-rule="nonzero" opacity="1" stroke="none"/>
<path d="M670.542 346.098C665.879 350.761 662.469 358.48 657.042 362.098C657.542 362.598 657.542 362.598 658.042 363.098C655.266 366.8 651.107 370.468 649.042 374.598C648.14 376.403 653.506 380.366 655.042 379.598C657.633 378.303 659.269 373.314 661.042 371.098C665.924 364.996 670.815 356.825 676.042 351.598C673.292 348.848 673.292 348.848 670.542 346.098Z" fill="#68a0dc" fill-rule="nonzero" opacity="1" stroke="none"/>
<path d="M524.542 606.098C519.384 611.256 509.798 615.838 506.042 622.098C508.588 624.644 512.545 627.093 510.542 631.098C511.792 632.348 510.766 636.808 510.766 636.808C510.766 636.808 525.879 618.593 530.542 611.598C528.404 608.925 527.265 608.367 524.542 606.098Z" fill="#d83444" fill-rule="nonzero" opacity="1" stroke="none"/>
<path d="M599.584 505.656C596.811 505.851 580.668 526.838 581.542 529.098C582.806 531.33 586.394 534.135 587.542 533.598C591.575 531.712 597.582 522.045 602.042 516.098C602.542 516.598 602.542 516.598 603.042 517.098C605.093 515.047 606.782 512.445 608.542 510.098C605.793 506.798 602.356 505.461 599.584 505.656Z" fill="#df3492" fill-rule="nonzero" opacity="1" stroke="none"/>
<path d="M579.542 468.098C569.715 477.925 567.092 479.097 576.542 489.598C579.354 488.192 580.863 482.221 583.042 481.598C587.421 480.347 590.525 487.115 594.542 483.098C589.862 477.832 583.735 473.688 579.542 468.098Z" fill="#f9edce" fill-rule="nonzero" opacity="1" stroke="none"/>
<path d="M592.542 485.098C580.132 497.508 587.515 495.071 595.542 503.098C608.93 491.623 604.058 492.108 592.542 485.098Z" fill="#a58153" fill-rule="nonzero" opacity="1" stroke="none"/>
<path d="M485.042 690.598C481.21 694.43 479.742 698.798 484.042 703.098C484.542 702.598 484.542 702.598 485.042 702.098C485.913 702.969 499.054 705.031 501.542 704.098C502.425 703.767 502.605 702.199 503.542 702.098C509.01 701.507 514.551 702.412 520.042 702.098C520.513 702.071 520.709 701.431 521.042 701.098C516.793 696.849 509.042 700.431 503.042 700.098C494.118 699.602 492.253 695.405 485.042 690.598Z" fill="#0d946c" fill-rule="nonzero" opacity="1" stroke="none"/>
<path d="M576.413 489.38C577.627 491.807 580.383 493.055 582.542 494.598C588.151 498.604 589.228 488.584 592.542 486.098C593.251 485.567 595.653 488.116 596.542 488.098C598.419 488.059 599.042 487.098 599.542 486.598C598.671 484.293 595.417 481.607 594.542 482.098C589.931 483.417 586.838 480.598 583.042 480.598C581.265 480.598 578.441 488.028 576.413 489.38Z" fill="#cdcb98" fill-rule="nonzero" opacity="1" stroke="none"/>
<path d="M688.042 522.598C683.722 526.918 684.826 547.046 681.311 556.463C680.351 557.867 688.095 560.223 688.095 560.223C688.095 560.223 689.161 527.261 689.042 523.598C689.027 523.127 688.376 522.931 688.042 522.598Z" fill="#249142" fill-rule="nonzero" opacity="1" stroke="none"/>
<path d="M597.542 444.598C590.933 451.207 583.233 460.217 579.042 468.598C580.794 470.35 582.396 472.246 584.042 474.098C589.439 468.701 591.634 470.189 586.042 464.598C588.085 460.513 602.252 449.308 597.542 444.598Z" fill="#68a0dc" fill-rule="nonzero" opacity="1" stroke="none"/>
<path d="M672.042 396.598C668.791 399.849 665.868 403.548 662.042 406.098C672.467 416.522 672.352 411.134 679.042 401.098C676.926 398.981 674.685 397.919 672.042 396.598Z" fill="#a58153" fill-rule="nonzero" opacity="1" stroke="none"/>
<path d="M678.542 400.598C675.212 403.928 672.734 408.507 669.542 412.098C677.093 419.648 681.926 414.83 686.542 405.598C683.824 402.88 681.85 402.252 678.542 400.598Z" fill="#cb9757" fill-rule="nonzero" opacity="1" stroke="none"/>
<path d="M549.542 575.098C545.475 579.166 542.294 583.525 541.953 586.811C541.747 588.798 542.389 589.444 545.042 592.098C548.178 588.962 552.067 584.548 554.042 580.598C552.202 578.757 551.398 576.335 549.542 575.098Z" fill="#d83444" fill-rule="nonzero" opacity="1" stroke="none"/>
<path d="M486.042 685.598C487.342 686.898 510.157 687.712 504.542 682.098C505.042 681.598 505.042 681.598 505.542 681.098C504.832 679.677 505.243 679.299 504.042 678.098C500.063 680.087 488.576 680.531 486.042 685.598Z" fill="#049f87" fill-rule="nonzero" opacity="1" stroke="none"/>
<path d="M668.548 480.546C642.122 490.289 650.109 550.524 695.914 532.638C747.416 512.529 694.39 471.019 668.548 480.546Z" fill="#b7b225" fill-rule="nonzero" opacity="1" stroke="none"/>
</g>
<g opacity="1"/>
<path d="M490.792 292.129C476.615 292.212 470.73 292.317 470.73 292.317L474.136 728.067C474.136 728.067 507.467 728.512 572.042 726.785C650.627 724.684 718.708 678.908 720.167 517.91C721.815 336.142 617.695 292.331 560.605 292.129C527.441 292.012 504.97 292.047 490.792 292.129ZM569.105 332.254C612.303 332.407 684.633 378.464 683.386 516.004C682.91 568.512 674.263 606.079 659.816 631.957C640.744 666.12 611.564 679.912 577.73 680.817C528.867 682.123 514.199 681.785 514.199 681.785L511.636 332.41C511.636 332.41 518.916 332.077 569.105 332.254Z" fill="url(#LinearGradient)" fill-rule="nonzero" opacity="1" stroke="none"/>
<path d="M132.105 200.067C132.105 200.067 312.826 258.278 314.261 317.442C317.644 456.903 316.076 520.629 314.792 723.098C314.245 758.584 149.167 825.723 149.167 825.723C149.167 825.723 198.492 825.673 618.542 823.692C764.658 818.404 853.167 681.43 853.167 517.629C853.167 353.828 773.83 207.213 564.824 201.848C161.887 199.507 132.105 200.067 132.105 200.067ZM274.136 234.473C274.136 234.473 310.611 238.014 560.042 236.129C755.207 241.139 808.917 386.207 808.917 517.317C808.917 648.426 746.637 779.348 610.199 784.285C373.895 785.4 317.049 785.846 304.511 786.035C307.746 785.25 357.167 772.253 357.167 709.192C357.167 644.016 361.136 405.853 361.136 330.379C361.136 254.905 274.136 234.473 274.136 234.473Z" fill="url(#LinearGradient_2)" fill-rule="nonzero" opacity="1" stroke="none"/>
<path d="M556.642 458.499" fill="#00ffb3" fill-rule="nonzero" opacity="1" stroke="#1e2b31" stroke-linecap="butt" stroke-linejoin="round" stroke-width="1"/>
<path d="M618.777 409.827C609.601 419.003 615.696 410.565 607.914 420.941C610.037 423.3 631.754 447.024 635.275 445.263C637.521 444.14 654.304 419.212 656.275 415.763C657.209 414.129 650.456 409.82 649.775 409.263C644.067 404.593 626.65 419.7 620.777 413.827C619.369 412.419 619.633 412.615 620.277 411.327C619.527 410.577 619.527 410.577 618.777 409.827Z" fill="#fbdca7" fill-rule="nonzero" opacity="1" stroke="none"/>
<g filter="url(#Filter)">
<path d="M798.124 230.864C786.888 233.431 781.185 232.287 764.313 237.756C760.22 239.083 753.722 239.608 750.533 242.708C762.106 244.616 769.625 242.415 775.034 242.145C794.79 241.159 814.222 230.232 821.22 223.769C820.235 221.854 818.644 223.176 815.717 223.646C811.537 224.484 803.628 229.607 798.124 230.864Z" fill="#756c68" fill-rule="nonzero" opacity="1" stroke="none"/>
<path d="M833.715 174.111C833.151 174.659 833.151 174.659 832.586 175.208C835.682 181.228 834.465 191.314 833.151 197.703C827.541 224.975 803.36 238.359 776.727 241.597C761.632 243.431 747.159 242.777 731.588 243.243C689.695 244.496 645.131 264.203 639.052 308.534C637.234 321.792 637.575 335.272 638.488 348.587C639.026 356.431 640.392 364.362 639.052 372.179C638.643 374.569 635.743 380.558 636.795 382.604C637.334 383.652 639.419 383.644 639.616 384.799C640.832 391.89 637.654 392.218 641.309 395.772C648.33 388.945 640.388 353.872 644.695 349.684C647.349 352.265 643.518 356.793 646.952 358.463C654.118 361.947 652.784 347.965 653.722 340.357C655.157 328.736 657.133 304.12 667.264 294.269C670.279 297.201 673.942 298.567 676.856 301.401C676.292 301.95 676.292 301.95 675.728 302.499C679.64 306.303 674.531 306.326 676.292 310.18C677.556 312.946 682.556 313.528 684.756 315.667C686.897 313.584 686.676 311.605 688.705 309.631C690.852 311.719 689.176 313.868 690.962 316.764C692.57 315.2 691.796 316.097 693.219 314.021C699.485 320.114 702.975 307.982 706.197 303.596C716.448 289.64 728.77 277.989 743.437 268.481C744.001 269.03 744.001 269.03 744.565 269.579C742.588 271.501 740.379 273.186 738.358 275.065C729.324 283.468 719.975 291.623 711.839 300.853C707.399 305.89 697.29 313.805 705.633 317.861C713.967 309.757 720.435 298.691 728.202 289.879C729.048 290.702 729.048 290.702 729.895 291.525C730.459 291.251 730.459 291.251 731.023 290.977C732.817 292.721 731.833 291.66 733.844 294.269C744.188 289.24 770.183 258.995 783.498 261.349C784.922 261.6 784.764 264.226 785.754 265.189C790.569 262.068 803.776 251.462 808.888 253.119C807.145 256.509 804.825 259.869 802.682 262.995C801.151 265.228 803.77 265.268 802.682 267.384C803.528 268.207 803.528 268.207 804.374 269.03C825.984 251.519 857.331 197.075 833.715 174.111Z" fill="#f9d27e" fill-rule="nonzero" opacity="1" stroke="none"/>
<path d="M665.007 293.171C659.29 306.972 658.904 310.377 657.672 314.569C653.776 327.829 652.03 341.05 652.03 355.171C652.03 365.95 661.392 377.735 650.901 385.896C648.7 383.756 650.556 381.384 649.209 378.763C648.312 377.02 645.381 375.447 644.13 373.825C641.854 376.039 643.142 380.025 643.002 383.153C642.649 391.057 641.023 407.572 635.103 413.33C638.075 416.22 667.86 439.026 672.907 436.922C677.917 434.834 688.921 417.804 693.783 414.427C700.786 409.563 712.261 407.432 718.046 401.808C716.438 400.244 717.36 400.997 715.225 399.613C719.781 392.967 743.9 388.579 752.464 377.666C749.853 373.857 738.891 376.747 734.409 376.02C732.33 375.683 733.604 372.181 733.28 371.631C732.877 370.945 727.876 364.729 726.509 363.401C722.82 365.195 720.398 368.795 717.482 371.631C717.082 371.372 711.075 364.853 709.582 363.401C699.486 372.127 688.377 382.535 680.806 393.578C678.549 392.114 679.489 393.029 677.985 390.834C676.856 391.932 676.856 391.932 675.728 393.029C666.517 385.863 684.808 377.717 676.856 369.985C671.849 374.854 672.021 385.111 666.7 390.286C665.511 389.515 660.017 385.785 659.929 384.799C659.521 380.24 660.493 375.658 660.493 371.082C660.493 357.384 656.929 344.639 658.236 329.383C658.503 326.268 659.233 323.101 659.929 320.056C660.747 316.477 669.319 295.482 668.957 293.72C668.504 291.519 665.987 292.218 665.007 293.171Z" fill="#c13d0b" fill-rule="nonzero" opacity="1" stroke="none"/>
<path d="M845 210.871C840.867 214.89 838.629 233.45 834.279 240.499C825.756 254.312 815.986 267.615 803.81 279.455C787.656 295.163 766.241 305.169 748.515 318.959C728.162 334.791 710.561 353.021 694.348 372.728C688.748 379.534 682.028 386.262 677.985 394.126C678.831 394.949 678.831 394.949 679.677 395.772C695.558 380.33 710.03 363.514 725.945 348.038C726.61 347.392 727.361 346.801 728.202 346.392C732.11 344.492 735.729 354.529 740.051 352.427C754.198 345.549 763.732 330.215 777.855 323.348C785.113 330.405 793.323 313.699 798.732 318.959C804.771 313.087 811.13 307.637 816.788 301.401C832.623 283.95 848.219 260.708 850.078 237.207C850.638 230.123 851.091 216.795 845 210.871Z" fill="#f9d27e" fill-rule="nonzero" opacity="1" stroke="none"/>
<path d="M697.733 331.578C697.169 332.127 697.169 332.127 696.605 332.675C690.876 328.962 703.837 312.874 706.761 309.083C716.027 297.07 726.775 286.878 737.794 276.163C741.958 272.114 752.116 268.061 754.721 262.995C754.157 262.446 754.157 262.446 753.593 261.897C728.542 274.077 713.368 292.108 697.169 315.118C694.727 313.931 696.363 314.831 692.655 311.826C684.234 313.557 679.291 339.432 684.756 344.746C685.602 344.197 685.602 344.197 686.448 343.649C687.013 344.197 687.013 344.197 687.577 344.746C686.035 346.245 683.518 351.78 684.191 354.073C684.494 355.103 688.168 356.777 687.013 358.463C681.989 365.791 681.595 368.484 689.834 373.825C703.427 360.607 713.99 344.301 727.638 331.029C729.734 328.991 730.722 331.387 732.716 329.932C757.617 311.772 782.184 289.855 804.939 269.03C803.577 267.044 803.507 267.974 804.374 266.287C803.81 265.738 803.81 265.738 803.246 265.189C804.687 263.088 812.302 252.584 808.888 250.924C806.431 249.729 790.12 261.15 788.011 262.995C779.426 270.508 768.712 274.437 759.643 281.492C746.176 291.968 733.555 305.497 721.995 317.861C715.637 324.662 710.671 335.779 703.376 341.454C703.031 341.722 702.564 341.187 702.037 340.247C700.619 337.717 698.77 332.251 697.733 331.578Z" fill="#fab03c" fill-rule="nonzero" opacity="1" stroke="none"/>
<path d="M845 255.862C842.643 258.154 841.521 263.176 839.921 266.287C836.108 273.704 831.914 280.37 826.944 287.136C814.035 304.71 797.595 317.898 781.241 332.127C774.92 337.626 755.337 357.964 747.95 350.781C755.283 343.651 764.13 337.46 772.213 331.029C773.459 330.038 780.676 326.791 780.676 324.994C780.676 316.432 753.153 341.912 750.772 343.649C748.585 345.244 742.615 351.879 739.487 351.879C734.374 351.879 731.765 341.98 726.509 346.941C720.687 352.436 714.848 357.914 709.018 363.401C712.021 366.808 713.982 369.873 716.917 372.728C721.149 368.887 721.149 368.887 725.381 365.047C729.402 367.98 730.713 373.524 733.28 376.02C739.618 369.857 748.701 365.516 755.85 360.109C781.676 340.576 810.707 320.763 829.765 294.817C832.729 290.782 849.316 260.059 845 255.862Z" fill="#e98127" fill-rule="nonzero" opacity="1" stroke="none"/>
<path d="M676.856 302.499C671.319 307.884 667.663 324.152 666.136 331.578C664.725 338.439 666.999 349.942 661.622 355.171C651.242 345.077 660.694 371.436 658.236 373.825C653.602 369.319 656.885 359.892 652.03 355.171C645.576 361.447 648.13 351.992 646.387 348.038C645.905 346.943 642.725 345.989 642.438 348.038C641.641 353.716 640.94 367.812 643.002 373.825C643.802 376.16 646.778 377.202 648.08 379.312C650.047 382.5 646.943 387.534 650.337 390.834C652.627 389.349 655.471 383.633 657.672 380.958C659.028 382.277 658.424 384.616 658.801 386.445C659.271 388.731 661.172 386.712 662.186 386.994C663.546 387.371 665.164 390.936 666.7 391.932C669.029 389.667 669.095 386.859 671.214 384.799C671.778 385.348 671.778 385.348 672.342 385.896C669.908 390.63 672.479 391.515 675.164 394.126C676.292 393.303 676.292 393.303 677.421 392.48C678.267 393.029 678.267 393.029 679.113 393.578C681.224 391.525 683.764 389.663 681.934 386.994C675.252 391.326 677.126 383.606 672.342 382.055C675.039 376.811 673.579 376.956 677.753 372.897C681.982 377.009 675.329 376.127 683.627 381.507C686.612 379.185 688.132 376.763 690.398 373.825C688.632 371.536 685.084 370.057 683.627 367.79C680.911 363.564 691.275 360.412 686.448 355.719C682.339 359.272 681.015 366.395 675.164 364.498C675.164 358.582 683.888 345.549 679.113 340.905C674.939 344.964 676.398 348.924 672.907 355.719C671.05 346.14 670.652 342.106 671.778 335.419C673.395 325.821 673.414 320.827 675.164 314.021C676.237 309.847 681.022 305.981 676.856 302.499Z" fill="#e76013" fill-rule="nonzero" opacity="1" stroke="none"/>
<path d="M819.609 251.473C819.609 251.473 798.211 275.108 785.754 285.49C769.774 298.81 753.672 312.204 737.23 324.994C732.251 328.867 727.747 329.826 723.124 334.321C708.86 348.192 695.396 364.067 684.191 380.409C676.275 374.251 685.928 366.714 680.242 363.949C679.443 364.726 673.563 385.183 674.035 386.445C675.386 390.058 679.246 390.157 681.37 388.091C681.934 388.365 681.934 388.365 682.499 388.64C703.267 368.445 719.007 344.834 741.18 325.543C756.199 312.476 773.157 304.178 788.974 292.855C801.663 283.77 813.561 272.116 823.559 259.154C821.079 256.743 819.609 251.473 819.609 251.473Z" fill="#e98127" fill-rule="nonzero" opacity="1" stroke="none"/>
<path d="M835.972 284.941C824.128 296.458 814.82 310.447 802.682 322.251C781.788 342.568 756.2 358.345 732.716 375.471C736.619 379.267 746.118 370.63 750.207 367.79C765.423 357.222 780.721 346.796 795.347 335.419C798.573 332.909 808.402 323.581 812.274 326.091C809.813 330.878 808.354 332.531 812.274 337.613C826.731 323.555 828.472 302.819 837.1 286.039C836.536 285.49 836.536 285.49 835.972 284.941Z" fill="#f9d27e" fill-rule="nonzero" opacity="1" stroke="none"/>
<path d="M768.827 266.835C764.864 267.045 761.293 271.644 758.107 273.968C741.839 285.832 726.588 298.544 715.225 315.118C713.314 317.905 692.834 344.168 702.811 342.551C706.224 341.998 719.796 321.787 723.124 318.41C734.811 306.552 746.079 294.627 759.235 284.393C762.919 281.527 788.069 265.816 768.827 266.835Z" fill="#f9edce" fill-rule="nonzero" opacity="1" stroke="none"/>
<path d="M797.039 351.879C788.535 360.148 778.012 368.537 767.135 373.825C766.57 373.277 766.57 373.277 766.006 372.728C766.989 370.816 765.824 370.356 764.313 368.887C757.482 372.209 751.261 378.149 744.565 382.055C734.391 387.991 723.419 392.655 713.532 399.064C717.159 406.118 728.08 398.892 733.28 396.87C751.676 389.714 768.849 381.018 784.062 368.339C789.4 363.89 795.066 359.559 799.296 354.073C798.168 352.976 798.168 352.976 797.039 351.879Z" fill="#bc621e" fill-rule="nonzero" opacity="1" stroke="none"/>
<path d="M668.393 294.269C665.031 297.537 659.658 311.37 661.622 315.667C662.992 318.665 665.729 315.811 666.7 318.959C667.921 322.916 664.509 325.058 667.828 328.286C671.038 325.165 669.083 319.934 672.342 316.764C675.505 319.84 671.369 330.795 671.214 334.87C670.908 342.914 670.47 350.964 670.65 359.011C670.661 359.529 671.402 359.743 671.778 360.109C677.562 356.359 680.626 332.093 682.499 323.897C682.844 322.386 685.886 316.402 685.32 315.118C683.989 312.098 679.026 311.741 676.856 309.631C676.01 310.454 676.01 310.454 675.164 311.277C671.56 307.773 679.294 304.373 677.985 301.401C676.275 297.522 670.977 296.782 668.393 294.269Z" fill="#fab03c" fill-rule="nonzero" opacity="1" stroke="none"/>
<path d="M759.799 360.657C761.295 362.839 761.455 361.718 763.185 363.401C758.513 367.944 754.345 372.18 749.079 376.02C750.492 377.395 751.051 376.84 752.464 378.215C758.542 372.305 766.953 368.779 773.905 363.949C784.849 356.348 794.794 348.027 804.374 338.711C807.708 335.469 814.57 328.401 812.838 323.348C807.829 323.348 799.635 331.424 795.911 334.321C784.139 343.479 771.852 351.867 759.799 360.657Z" fill="#f5a117" fill-rule="nonzero" opacity="1" stroke="none"/>
<path d="M728.202 288.782C719.529 297.216 711.859 306.858 705.068 316.764C703.226 315.868 704.237 316.505 702.247 314.569C699.083 317.646 693.742 325.319 693.219 329.383C692.782 332.787 695.108 335.228 697.733 332.675C699.915 334.797 698.576 336.238 700.554 338.162C705.118 335.204 709.34 326.118 712.403 321.153C718.483 311.301 726.422 302.682 734.409 294.269C732.904 292.074 732.904 293.171 734.409 290.977C732.903 289.513 731.796 289.504 729.895 290.428C729.048 289.605 729.048 289.605 728.202 288.782Z" fill="#fbda5b" fill-rule="nonzero" opacity="1" stroke="none"/>
<path d="M841.614 188.925C837.15 193.265 840.296 204.843 838.793 211.42C835.519 225.745 828.029 239.823 819.045 251.473C821.436 253.798 820.305 257.088 822.994 259.703C831.558 251.375 836.734 238.275 840.486 227.331C841.948 223.066 842.576 214.325 845.564 211.42C839.363 205.391 847.807 194.946 841.614 188.925Z" fill="#bc621e" fill-rule="nonzero" opacity="1" stroke="none"/>
<path d="M809.453 331.029C794.327 345.738 781.305 358.055 763.749 369.436C765.044 370.695 765.735 371.06 764.878 372.728C766.006 373.825 766.006 373.825 767.135 374.923C784.554 366.454 801.798 351.927 812.838 337.613C811.245 335.289 810.416 334.963 811.145 332.127C810.299 331.578 810.299 331.578 809.453 331.029Z" fill="#fbda5b" fill-rule="nonzero" opacity="1" stroke="none"/>
<path d="M689.27 306.888C684.436 311.588 677.127 334.232 677.985 340.905C678.308 343.417 679.692 346.898 678.549 350.233C677.67 352.798 671.962 365.136 675.164 366.693C679.176 368.644 685.043 358.114 687.013 355.719C681.513 350.372 692.523 341.068 690.398 334.87C686.651 337.603 687.77 340.718 684.756 343.649C678.169 337.244 695.514 310.936 689.27 306.888Z" fill="#f5a117" fill-rule="nonzero" opacity="1" stroke="none"/>
<path d="M645.259 451.188C646.891 452.775 648.255 452.024 650.337 452.834C660.784 456.897 662.605 452.29 668.957 444.055C669.521 444.329 669.521 444.329 670.085 444.604C677.096 437.787 671.125 434.295 663.879 432.533C662.208 432.127 661.987 430.086 659.929 430.887C654.211 433.111 651.687 447.021 645.259 451.188Z" fill="#e86c90" fill-rule="nonzero" opacity="1" stroke="none"/>
<path d="M661.622 311.826C655.471 309.786 657.35 333.524 657.108 338.711C656.886 343.464 656.057 348.241 656.544 352.976C656.641 353.924 661.594 356.943 662.75 356.268C666.057 354.339 665.037 346.478 665.572 343.1C667.616 330.175 674.142 315.98 661.622 311.826Z" fill="#f5a117" fill-rule="nonzero" opacity="1" stroke="none"/>
<path d="M782.369 322.799C773.853 331.081 760.383 337.993 751.056 347.106C752.894 349.787 753.795 351.33 758.107 351.33C760.945 351.33 767.417 344.045 769.392 342.551C779.549 334.869 788.547 325.378 799.296 318.41C793.258 312.538 789.474 326.254 782.369 322.799Z" fill="#fab03c" fill-rule="nonzero" opacity="1" stroke="none"/>
<path d="M611.405 418.268C607.722 421.849 608.733 420.172 607.455 422.657C619.909 434.767 631.752 443.797 646.952 451.188C650.048 448.177 651.258 444.805 654.287 441.86C652.466 440.09 651.422 441.444 649.209 440.214C638.243 434.121 645.957 442.431 639.052 441.312C631.654 440.113 614.412 422.654 611.405 418.268Z" fill="#cb9757" fill-rule="nonzero" opacity="1" stroke="none"/>
<path d="M617.047 410.586C616.524 411.094 613.134 413.751 614.226 414.976C618.921 420.244 646.403 444.05 654.851 441.312C654.851 438.3 661.261 433.676 660.493 431.436C659.717 429.17 658.237 429.132 656.544 428.144C649.503 424.035 648.527 429.027 644.13 434.728C633.458 427.809 626.215 419.501 617.047 410.586Z" fill="#a58153" fill-rule="nonzero" opacity="1" stroke="none"/>
<path d="M626.075 401.808C621.053 404.249 620.301 407.422 617.047 410.586C617.423 411.318 617.607 412.178 618.175 412.781C622.041 416.881 625.98 420.918 630.024 424.852C634.653 429.352 639.987 421.937 641.873 418.268C636.37 412.916 631.087 406.681 626.075 401.808Z" fill="#f9edce" fill-rule="nonzero" opacity="1" stroke="none"/>
<path d="M625.511 402.356C628.954 405.705 630.906 410.406 635.667 413.878C642.262 407.465 642.024 392.542 640.745 384.25C640.631 383.511 638.319 381.869 637.36 382.055C635.708 382.377 636.413 383.367 636.231 384.25C634.81 391.161 629.626 397.02 625.511 402.356Z" fill="#bc621e" fill-rule="nonzero" opacity="1" stroke="none"/>
<path d="M641.309 417.719C639.319 419.654 637.423 423.498 635.103 424.852C633.928 425.537 632.121 425.007 631.153 425.949C632.122 427.833 641.97 437.15 644.695 435.825C647.589 434.418 650.261 428.529 652.03 425.949C648.834 422.842 645.37 419.693 641.309 417.719Z" fill="#d2ab77" fill-rule="nonzero" opacity="1" stroke="none"/>
<path d="M742.308 372.179C744.648 374.455 747.748 373.629 750.207 376.02C754 374.176 773.316 357.919 759.235 360.657C754.427 361.593 746.654 369.362 742.308 372.179Z" fill="#e98127" fill-rule="nonzero" opacity="1" stroke="none"/>
<path d="M768.263 266.835C771.113 269.606 770.449 273.602 771.885 274.998C800.918 260.503 779.007 256.388 768.263 266.835Z" fill="#fbdca7" fill-rule="nonzero" opacity="1" stroke="none"/>
<path d="M746.822 350.781C752.273 356.082 752.842 355.17 758.107 351.33C753.954 345.273 752.527 345.234 746.822 350.781Z" fill="#f19642" fill-rule="nonzero" opacity="1" stroke="none"/>
<path d="M735.537 375.471C738.752 378.598 747.207 378.938 750.772 375.471C746.484 371.302 739.97 371.161 735.537 375.471Z" fill="#e76013" fill-rule="nonzero" opacity="1" stroke="none"/>
</g>
</g>
</svg>
